<svg class="icon" xmlns="http://www.w3.org/2000/svg" xml:space="preserve" viewBox="0 0 21 21" width="200" height="200">
    <path d="M0 1.5a1.5 1.5 0 1 0 3 0a1.5 1.5 0 1 0 -3 0z"></path>
    <path d="M18 19.5a1.5 1.5 0 1 0 3 0a1.5 1.5 0 1 0 -3 0z"></path>
    <path d="M9 0.5a0.5 0.5 0 0 1 0.5 -0.5h2a0.5 0.5 0 0 1 0.5 0.5v2a0.5 0.5 0 0 1 -0.5 0.5h-2a0.5 0.5 0 0 1 -0.5 -0.5z"></path>
    <path d="M18 9.5a0.5 0.5 0 0 1 0.5 -0.5h2a0.5 0.5 0 0 1 0.5 0.5v2a0.5 0.5 0 0 1 -0.5 0.5h-2a0.5 0.5 0 0 1 -0.5 -0.5z"></path>
    <path d="M18 0.5a0.5 0.5 0 0 1 0.5 -0.5h2a0.5 0.5 0 0 1 0.5 0.5v2a0.5 0.5 0 0 1 -0.5 0.5h-2a0.5 0.5 0 0 1 -0.5 -0.5z"></path>
    <path d="M0 9.5a0.5 0.5 0 0 1 0.5 -0.5h2a0.5 0.5 0 0 1 0.5 0.5v2a0.5 0.5 0 0 1 -0.5 0.5h-2a0.5 0.5 0 0 1 -0.5 -0.5z"></path>
    <path d="M10.5,9.5a1,1,0,1,1-1,1,1,1,0,0,1,1-1m0-.5A1.5,1.5,0,1,0,12,10.5,1.5,1.5,0,0,0,10.5,9Z"></path>
    <path d="M0 18.5a0.5 0.5 0 0 1 0.5 -0.5h2a0.5 0.5 0 0 1 0.5 0.5v2a0.5 0.5 0 0 1 -0.5 0.5h-2a0.5 0.5 0 0 1 -0.5 -0.5z"></path>
    <path d="M9 18.5a0.5 0.5 0 0 1 0.5 -0.5h2a0.5 0.5 0 0 1 0.5 0.5v2a0.5 0.5 0 0 1 -0.5 0.5h-2a0.5 0.5 0 0 1 -0.5 -0.5z"></path>
</svg>